<?xml version="1.0" standalone="no"?>
<!DOCTYPE svg PUBLIC "-//W3C//DTD SVG 1.1//EN" "http://www.w3.org/Graphics/SVG/1.1/DTD/svg11.dtd" >
<svg xmlns="http://www.w3.org/2000/svg" xmlns:xlink="http://www.w3.org/1999/xlink" version="1.1">
<metadata>
Created by FontForge 20230101 at Wed Jul 12 20:06:00 2017
 By Unknown
Copyright (c) 2017 by Lachlan Philp. All rights reserved.
</metadata>
<defs>
<font id="Union-Regular" horiz-adv-x="422" >
  <font-face 
    font-family="Union"
    font-weight="400"
    font-stretch="normal"
    units-per-em="1000"
    panose-1="0 0 5 0 0 0 0 0 0 0"
    ascent="800"
    descent="-200"
    x-height="600"
    cap-height="700"
    bbox="41 -200 789 800"
    underline-thickness="50"
    underline-position="-100"
    unicode-range="U+0020-20AC"
  />
<missing-glyph horiz-adv-x="500" 
d="M410 800v-1000h-317v1000h317zM333 733h-165v-33h65v-37h-66v-33h166v33h-66v37h66v33zM267 604h-100v-104h166v34h-66v70zM233 570v-36h-33v36h33zM333 473h-166v-33h66v-37h-66v-33h100v70h66v33zM333 413h-33v-66h-133v-34h166v100zM333 291h-100v-56h34v23h33v-47
h-100v80h-33v-113h166v113zM333 118h-166v-113h166v113zM300 85v-47h-100v47h100zM333 -18h-166v-33h70l-70 -47v-33h166v33h-102l70 47h32v33z" />
    <glyph glyph-name=".notdef" horiz-adv-x="500" 
d="M410 800v-1000h-317v1000h317zM333 733h-165v-33h65v-37h-66v-33h166v33h-66v37h66v33zM267 604h-100v-104h166v34h-66v70zM233 570v-36h-33v36h33zM333 473h-166v-33h66v-37h-66v-33h100v70h66v33zM333 413h-33v-66h-133v-34h166v100zM333 291h-100v-56h34v23h33v-47
h-100v80h-33v-113h166v113zM333 118h-166v-113h166v113zM300 85v-47h-100v47h100zM333 -18h-166v-33h70l-70 -47v-33h166v33h-102l70 47h32v33z" />
    <glyph glyph-name=".null" horiz-adv-x="0" 
 />
    <glyph glyph-name="nonmarkingreturn" horiz-adv-x="333" 
 />
    <glyph glyph-name="space" unicode=" " horiz-adv-x="260" 
 />
    <glyph glyph-name="exclam" unicode="!" horiz-adv-x="394" 
d="M149 171l-7 521q0 8 11 8h65q11 0 11 -8l-7 -521q0 -8 -11 -8h-51q-11 0 -11 8zM142 31v25q0 12 9.5 21.5t21.5 9.5h25q12 0 21.5 -9.5t9.5 -21.5v-25q0 -12 -9.5 -21.5t-21.5 -9.5h-25q-12 0 -21.5 9.5t-9.5 21.5z" />
    <glyph glyph-name="quotedbl" unicode="&#x22;" horiz-adv-x="319" 
d="M111 709q12 0 21.5 -9.5t9.5 -21.5v-45q0 -4 -1 -6l-35 -60h-17l-32 59q-2 4 -2 7v45q0 12 9.5 21.5t21.5 9.5h25zM264 678v-45q0 -4 -1 -6l-35 -60h-17l-32 59q-2 4 -2 7v45q0 12 9.5 21.5t21.5 9.5h25q12 0 21.5 -9.5t9.5 -21.5z" />
    <glyph glyph-name="numbersign" unicode="#" horiz-adv-x="680" 
d="M574 480q11 0 11 -11v-55q0 -11 -11 -11h-103q-3 -28 -6 -57.5t-6 -57.5h87q11 0 11 -11v-55q0 -11 -11 -11h-94l-14 -147q0 -15 -14 -15h-59q-14 0 -14 15q9 90 14 147h-97l-14 -147q0 -15 -14 -15h-59q-14 0 -14 15q9 90 14 147h-94q-11 0 -11 11v55q0 11 11 11h101
q3 28 6 58t6 57h-95q-11 0 -11 11v55q0 11 11 11h102l14 147q0 15 14 15h59q14 0 14 -15q-9 -90 -14 -147h97l14 147q0 15 14 15h59q14 0 14 -15q-9 -90 -14 -147h96zM372 288l12 115h-97l-12 -115h97z" />
    <glyph glyph-name="dollar" unicode="$" horiz-adv-x="435" 
d="M365 170q0 -32 -10.5 -65t-36.5 -64t-63 -42l3 -56q0 -8 -11 -8h-65q-11 0 -11 8q2 28 3 54q-47 12 -75 51.5t-29 104.5v44q0 11 11 11h64q11 0 11 -11v-41q0 -36 17 -56.5t43 -20.5t43 24t17 71q0 38 -21 75.5t-51.5 70t-61 66t-51.5 78t-21 93.5q0 54 29.5 93.5
t75.5 51.5l-3 57q0 8 11 8h65q11 0 11 -8q-2 -29 -3 -59q43 -14 70 -50t28 -82v-40q0 -11 -10 -11h-65q-11 0 -11 11v40q-1 22 -15 37.5t-37 15.5t-38 -17.5t-15 -46.5q0 -35 21 -72t50.5 -70.5t59 -69t50.5 -81t21 -94.5z" />
    <glyph glyph-name="ampersand" unicode="&#x26;" horiz-adv-x="626" 
d="M522 100q8 -11 -2 -20l-45 -38q-11 -9 -20 2l-43 51q-17 -102 -153 -102q-66 0 -108.5 31.5t-42.5 84.5v197q0 61 43 98q-20 22 -20 47v136q0 54 36.5 88t94.5 34q59 0 94.5 -34.5t36.5 -95.5v-93q0 -12 -12 -12h-61q-13 0 -13 10v93q-2 43 -44 43q-47 0 -47 -43v-80
q0 -36 10 -48zM322 168v33l-111 131q-17 -15 -17 -36v-156q0 -57 66 -57q62 0 62 67v16v2z" />
    <glyph glyph-name="quotesingle" unicode="'" horiz-adv-x="197" 
d="M142 678v-45q0 -4 -1 -6l-35 -60h-17l-32 59q-2 4 -2 7v45q0 12 9.5 21.5t21.5 9.5h25q12 0 21.5 -9.5t9.5 -21.5z" />
    <glyph glyph-name="parenleft" unicode="(" horiz-adv-x="327" 
d="M233 74h-27q-18 0 -26 8.5t-8.5 15t-0.5 24.5v456q0 32 9 40q8 7 26 7h27q14 0 14 14v60q0 15 -14 15h-27q-55 0 -90.5 -32t-35.5 -102v-461q0 -70 35.5 -102t90.5 -32h27q14 0 14 14v60q0 15 -14 15z" />
    <glyph glyph-name="parenright" unicode=")" horiz-adv-x="327" 
d="M94 74q-14 0 -14 -15v-60q0 -14 14 -14h27q55 0 90.5 32t35.5 102v461q0 70 -35.5 102t-90.5 32h-27q-14 0 -14 -15v-60q0 -14 14 -14h27q18 0 26 -8.5t8.5 -14.5t0.5 -24v-456q0 -33 -9 -41q-8 -7 -26 -7h-27z" />
    <glyph glyph-name="asterisk" unicode="*" horiz-adv-x="460" 
d="M372 581q8 0 8 -11v-39q0 -11 -8 -11l-91 9l71 -58q6 -4 -2 -14l-28 -27q-6 -6 -13 -2l-58 71l9 -91q0 -8 -11 -8h-39q-11 0 -11 8l9 90l-57 -70q-6 -6 -14 2l-27 28q-8 7 -2 13q38 31 70 58l-90 -9q-8 0 -8 11v39q0 11 8 11l90 -9l-70 57q-6 6 2 14l28 27q7 8 13 2
q30 -37 57 -69l-9 89q0 8 11 8h39q11 0 11 -8l-9 -90l57 70q6 6 14 -2l27 -28q8 -7 2 -13q-37 -30 -69 -57z" />
    <glyph glyph-name="comma" unicode="," horiz-adv-x="247" 
d="M167 56v-45q0 -4 -3 -7l-31 -51h-17v47h-5q-12 0 -21.5 9.5t-9.5 21.5v25q0 12 9.5 21.5t21.5 9.5h25q12 0 21.5 -9.5t9.5 -21.5z" />
    <glyph glyph-name="hyphen" unicode="-" horiz-adv-x="381" 
d="M315 214h-249q-11 0 -11 11v65q0 11 11 11h249q11 0 11 -11v-65q0 -11 -11 -11z" />
    <glyph glyph-name="period" unicode="." horiz-adv-x="247" 
d="M80 31v25q0 12 9.5 21.5t21.5 9.5h25q12 0 21.5 -9.5t9.5 -21.5v-25q0 -12 -9.5 -21.5t-21.5 -9.5h-25q-12 0 -21.5 9.5t-9.5 21.5z" />
    <glyph glyph-name="slash" unicode="/" horiz-adv-x="427" 
d="M167 -5q0 -15 -14 -15h-59q-14 0 -14 15q180 663 180 710q0 15 14 15h59q14 0 14 -15z" />
    <glyph glyph-name="zero" unicode="0" 
d="M211 708q56 0 93.5 -32t37.5 -102v-448q0 -70 -37.5 -102t-93.5 -32t-93.5 32t-37.5 102v448q0 70 37.5 102t93.5 32zM211 619q-45 0 -45 -47q0 -53 90 -197v197q0 47 -45 47zM256 129v26q0 55 -90 204v-230q0 -48 45 -48t45 48z" />
    <glyph glyph-name="one" unicode="1" horiz-adv-x="303" 
d="M223 686v-675q0 -11 -10 -11h-65q-11 0 -11 11v592q0 11 -11 11h-35q-11 0 -11 11v64q0 11 11 11h118q14 0 14 -14z" />
    <glyph glyph-name="two" unicode="2" horiz-adv-x="439" 
d="M168 567q0 -11 -11 -11h-65q-10 0 -10 11q0 58 40.5 99t96.5 41q55 0 95.5 -42.5t40.5 -104.5q0 -59 -30.5 -136t-77 -170t-64.5 -144q-9 -27 8 -27h154q14 0 14 -14v-55q0 -14 -12 -14h-254q-13 0 -13 14q0 63 29 145t64.5 147.5t64.5 137t29 116.5q0 26 -14.5 43.5
t-33.5 17.5t-35 -16.5t-16 -37.5z" />
    <glyph glyph-name="three" unicode="3" 
d="M80 124l1 76q0 14 15 14h56q14 0 14 -14v-73q0 -48 45 -48t45 48v170q0 47 -44 47h-36q-14 0 -14 15v66q0 14 14 14h35q45 0 45 48v85q0 47 -45 47t-45 -45q0 -12 -14 -12h-58q-14 0 -14 12q0 70 37.5 102t93.5 32t93.5 -32t37.5 -102v-90q0 -59 -28 -92q28 -35 28 -93
v-175q0 -70 -37.5 -102t-93.5 -32q-65 0 -97.5 41t-33.5 93z" />
    <glyph glyph-name="four" unicode="4" 
d="M167 411q0 -17 11.5 -28.5t28.5 -11.5h38q11 0 11 9v307q0 13 12 13h63q11 0 11 -10v-679q0 -11 -11 -11h-65q-10 0 -10 11v263q0 10 -11 10h-67q-39 0 -68.5 30.5t-29.5 70.5v301q0 14 14 14h59q14 0 14 -14v-275z" />
    <glyph glyph-name="five" unicode="5" 
d="M167 590v-61q14 10 44 10q56 0 93.5 -32t37.5 -102v-278q0 -70 -37.5 -102t-93.5 -32t-93.5 32t-37.5 102v108q0 12 13 12h62q12 0 12 -15l-1 -94v-8q0 -48 45 -48t45 48v273q0 47 -45 47t-45 -47v-11q0 -12 -10 -12h-64q-12 0 -12 12v13v281q0 14 13 14h234q12 0 12 -14
v-55q0 -14 -14 -14h-140q-18 0 -18 -27z" />
    <glyph glyph-name="six" unicode="6" 
d="M211 471q-13 0 -25.5 -3.5t-18.5 -6.5l-6 -3v118q0 20 14.5 35t35.5 15t36 -14.5t16 -34.5v-1q0 -10 9 -10h60q10 0 10 10v1q-1 53 -38.5 90.5t-92.5 37.5q-54 0 -92.5 -38t-38.5 -91v-450q0 -70 37.5 -102t93.5 -32t93.5 32t37.5 102v211q0 70 -37.5 102t-93.5 32z
M166 129v214q0 39 45 39t45 -47v-206q0 -48 -45 -48t-45 48z" />
    <glyph glyph-name="seven" unicode="7" horiz-adv-x="423" 
d="M221 613h-127q-14 0 -14 14v58q0 15 14 15h234q5 0 10 -4.5t5 -10.5q0 -19 -66 -330t-74 -344q-3 -11 -14 -11h-66q-4 0 -6 1.5t-2 3.5v2l120 592q0 14 -14 14z" />
    <glyph glyph-name="eight" unicode="8" 
d="M342 574v-77q0 -59 -28 -92q28 -35 28 -93v-188q0 -70 -37.5 -102t-93.5 -32t-93.5 32t-37.5 102v188q0 59 29 93q-29 32 -29 92v77q0 70 37.5 102t93.5 32t93.5 -32t37.5 -102zM166 572v-72q0 -48 45 -48t45 48v72q0 47 -45 47t-45 -47zM256 127v183q0 47 -45 47
t-45 -47v-183q0 -48 45 -48t45 48z" />
    <glyph glyph-name="nine" unicode="9" 
d="M211 264q13 0 25.5 3t18.5 7l6 3v-156q0 -20 -14.5 -35t-35.5 -15t-36 14.5t-16 34.5v61q0 10 -9 10h-60q-10 0 -10 -10v-61q1 -53 38.5 -90.5t92.5 -37.5q54 0 92.5 38t38.5 91v450q0 70 -37.5 102t-93.5 32t-93.5 -32t-37.5 -102v-173q0 -70 37.5 -102t93.5 -32z
M256 568v-176q0 -39 -45 -39t-45 47v168q0 48 45 48t45 -48z" />
    <glyph glyph-name="colon" unicode=":" horiz-adv-x="197" 
d="M55 271v25q0 12 9.5 21.5t21.5 9.5h25q12 0 21.5 -9.5t9.5 -21.5v-25q0 -12 -9.5 -21.5t-21.5 -9.5h-25q-12 0 -21.5 9.5t-9.5 21.5zM55 31v25q0 12 9.5 21.5t21.5 9.5h25q12 0 21.5 -9.5t9.5 -21.5v-25q0 -12 -9.5 -21.5t-21.5 -9.5h-25q-12 0 -21.5 9.5t-9.5 21.5z" />
    <glyph glyph-name="semicolon" unicode=";" horiz-adv-x="197" 
d="M111 327q12 0 21.5 -9.5t9.5 -21.5v-25q0 -12 -9.5 -21.5t-21.5 -9.5h-25q-12 0 -21.5 9.5t-9.5 21.5v25q0 12 9.5 21.5t21.5 9.5h25zM111 87q12 0 21.5 -9.5t9.5 -21.5v-25v-20q0 -4 -3 -7l-31 -51h-17v47h-5q-12 0 -21.5 9.5t-9.5 21.5v25q0 12 9.5 21.5t21.5 9.5h25z
" />
    <glyph glyph-name="question" unicode="?" horiz-adv-x="394" 
d="M141 567q0 -11 -11 -11h-65q-10 0 -10 11q0 58 41.5 99t100.5 41t100.5 -41t41.5 -99q0 -54 -17 -105t-38 -85t-38 -85t-17 -105q0 -14 -14 -14h-60q-13 0 -13 14q0 63 17 119.5t37.5 90.5t37.5 79.5t17 90.5q0 22 -16 38t-38 16q-23 0 -39.5 -16t-16.5 -38zM142 31v25
q0 12 9.5 21.5t21.5 9.5h25q12 0 21.5 -9.5t9.5 -21.5v-25q0 -12 -9.5 -21.5t-21.5 -9.5h-25q-12 0 -21.5 9.5t-9.5 21.5z" />
    <glyph glyph-name="at" unicode="@" horiz-adv-x="919" 
d="M459 755q68 0 122 -17.5t88 -42t58 -69t36 -79t18 -93t7 -90.5t1 -90v-9q0 -119 -37 -187.5t-89 -67.5q-31 0 -59.5 25.5t-46.5 73.5q-39 -45 -101 -45q-46 0 -80 24t-51 63.5t-25 81t-8 86.5q0 244 164 244q47 0 79 -23v9q0 15 11 15h62q11 0 11 -15v-298
q0 -66 12.5 -104t31.5 -38q20 0 34 40t14 117v14q0 36 -0.5 58.5t-5 67.5t-13 75.5t-27 69t-44 62t-66 40t-92.5 16.5q-95 0 -160 -72t-80.5 -175t-2 -205.5t74.5 -174t150 -71.5q23 0 23 -17v-61q0 -15 -26 -15q-84 0 -151 48.5t-101.5 125.5t-51 170.5t0.5 187.5t53 171
t106.5 125.5t160.5 48.5zM464 163q59 0 59 159q0 151 -59 151q-72 0 -72 -151q0 -68 18.5 -113.5t53.5 -45.5z" />
    <glyph glyph-name="A" unicode="A" horiz-adv-x="408" 
d="M55 11l89 680q4 11 11 11h99q8 0 10 -11q6 -19 89 -680q1 -11 -10 -11h-66q-8 0 -10 11q-4 24 -11 75q-2 7 -8 7h-88q-5 0 -7 -7l-11 -75q-2 -11 -11 -11h-65q-12 0 -11 11zM166 180q0 -8 8 -8h61q9 0 7 8l-38 424z" />
    <glyph glyph-name="B" unicode="B" horiz-adv-x="432" 
d="M90 14v672q0 14 14 14h154q38 0 66 -29.5t28 -72.5v-127q0 -57 -44 -80q44 -23 44 -81v-208q0 -38 -28.5 -70t-65.5 -32h-154q-14 0 -14 14zM177 442q0 -14 14 -14h38q15 0 25.5 13.5t10.5 30.5v98q0 18 -10.5 31t-25.5 13h-38q-14 0 -14 -14v-158zM177 101q0 -14 14 -14
h38q15 0 25.5 13.5t10.5 30.5v164q0 18 -10.5 31t-25.5 13h-38q-14 0 -14 -14v-224z" />
    <glyph glyph-name="C" unicode="C" horiz-adv-x="401" 
d="M265 536q-5 -1 -8 2.5t-3 8.5v29q0 46 -45 46q-44 0 -44 -46v-451q0 -47 44 -47q45 0 45 47v29q0 11 11 11l61 -4q10 -2 10 -11v-49q0 -56 -38.5 -83.5t-88.5 -27.5q-55 0 -92 31.5t-37 100.5v457q0 68 37 99.5t92 31.5q50 0 88.5 -24.5t38.5 -75.5v-56q0 -9 -10 -10z
" />
    <glyph glyph-name="D" unicode="D" horiz-adv-x="432" 
d="M90 13v673q0 14 14 14h150q40 0 69 -30t29 -70v-504q0 -39 -30.5 -67.5t-71.5 -28.5h-146q-14 0 -14 13zM176 100q0 -14 14 -14h39q17 0 29.5 12t12.5 28v446q0 17 -12.5 30t-29.5 13h-42q-11 0 -11 -10v-505z" />
    <glyph glyph-name="E" unicode="E" horiz-adv-x="412" 
d="M176 100q0 -14 15 -14h147q13 0 13 -13v-58q0 -15 -14 -15h-233q-14 0 -14 15v671q0 14 14 14h234q14 0 14 -14v-59q0 -14 -14 -14h-148q-14 0 -14 -14v-182q0 -14 14 -14h118q14 0 14 -14v-58q0 -14 -14 -14h-118q-14 0 -14 -14v-203z" />
    <glyph glyph-name="F" unicode="F" horiz-adv-x="417" 
d="M177 15q0 -6 -4.5 -10.5t-10.5 -4.5h-58q-14 0 -14 15v671q0 14 14 14h234q14 0 14 -14v-59q0 -14 -14 -14h-148q-14 0 -14 -14v-182q0 -14 14 -14h118q14 0 14 -14v-58q0 -14 -14 -14h-118q-14 0 -14 -14z" />
    <glyph glyph-name="G" unicode="G" horiz-adv-x="427" 
d="M338 402q9 0 9 -8v-292q0 -58 -39.5 -85.5t-92.5 -27.5q-58 0 -96.5 32t-38.5 101v455q0 70 38 101.5t97 31.5q53 0 92.5 -24.5t39.5 -74.5v-57q0 -10 -10 -10l-61 -8q-12 -2 -12 10v29q0 48 -49 48q-48 0 -48 -48v-450q0 -47 48 -47q49 0 49 48l-1 181q0 11 -10 11
l-34 -1q-10 0 -10 11v64q0 10 10 10h119z" />
    <glyph glyph-name="H" unicode="H" horiz-adv-x="452" 
d="M90 15v671q0 14 14 14h58q14 0 14 -14v-216q0 -14 14 -14h72q14 0 14 14v216q0 14 14 14h58q14 0 14 -14v-671q0 -15 -14 -15h-58q-6 0 -10.5 4.5t-4.5 10.5l1 341q0 14 -14 14h-72q-14 0 -14 -14l1 -341q0 -6 -4.5 -10.5t-10.5 -4.5h-58q-14 0 -14 15z" />
    <glyph glyph-name="I" unicode="I" horiz-adv-x="267" 
d="M90 14v672q0 14 14 14h59q14 0 14 -14v-672q0 -14 -14 -14h-59q-14 0 -14 14z" />
    <glyph glyph-name="J" unicode="J" horiz-adv-x="392" 
d="M62 58q16 -31 49.5 -50t69.5 -19q54 0 92.5 32.5t38.5 98.5v566q0 14 -14 14h-59q-14 0 -14 -15v-558q0 -51 -44 -51q-30 0 -48 30q-10 16 -26 4l-37 -24q-16 -12 -8 -28z" />
    <glyph glyph-name="K" unicode="K" horiz-adv-x="429" 
d="M244 379l129 -363q5 -16 -10 -16h-60q-12 0 -17 14l-114 321v-322q0 -13 -14 -13h-53q-15 0 -15 13v672q0 6 4.5 10.5t10.5 4.5h53q14 0 14 -15v-280q19 51 58 159.5t44 120.5q6 15 14 15h66q1 0 3 -0.5t4.5 -4t-0.5 -10.5z" />
    <glyph glyph-name="L" unicode="L" horiz-adv-x="408" 
d="M192 87h147q14 0 14 -14v-58q0 -15 -14 -15h-234q-5 0 -10 4.5t-5 10.5v678v2t2.5 3t6.5 2h71q4 0 6 -2t2 -4v-1v-592q0 -14 14 -14z" />
    <glyph glyph-name="M" unicode="M" horiz-adv-x="599" 
d="M499 701q10 0 10 -10v-680q0 -11 -10 -11h-65q-11 0 -11 11v415l-93 -364q-2 -11 -10 -11h-40q-9 0 -11 11l-93 364v-415q0 -11 -10 -11h-65q-11 0 -11 11v680q0 10 11 10h77q9 0 10 -5l112 -476q108 462 112 476q1 5 9 5h78z" />
    <glyph glyph-name="N" unicode="N" horiz-adv-x="476" 
d="M300 248v442q0 11 10 11h65q11 0 11 -11v-679q0 -10 -11 -10h-62q-9 0 -13 10q-4 14 -52.5 179.5t-71.5 250.5v-430q0 -11 -10 -11h-65q-11 0 -11 11v680q0 10 11 10h67q9 0 10 -5z" />
    <glyph glyph-name="O" unicode="O" 
d="M211 714q56 0 93.5 -32t37.5 -102v-461q0 -70 -37.5 -102t-93.5 -32t-93.5 32t-37.5 102v461q0 70 37.5 102t93.5 32zM256 122v456q0 47 -45 47t-45 -47v-456q0 -48 45 -48t45 48z" />
    <glyph glyph-name="P" unicode="P" horiz-adv-x="417" 
d="M254 701q40 0 69 -30.5t29 -73.5v-182q0 -40 -29.5 -70.5t-68.5 -30.5h-67q-11 0 -11 -10v-293q0 -11 -10 -11h-65q-11 0 -11 11v679q0 11 11 11h153zM265 441v129q0 17 -12 30.5t-28 13.5h-38q-11 0 -11 -10v-194q0 -9 11 -9h38q17 0 28.5 11.5t11.5 28.5z" />
    <glyph glyph-name="Q" unicode="Q" horiz-adv-x="427" 
d="M364 23q8 -7 0 -15l-46 -46q-7 -7 -16 0l-34 34q-26 -10 -57 -10q-55 0 -93 32.5t-38 101.5v461q0 70 37.5 102t93.5 32t93.5 -32t37.5 -102v-461q0 -36 -11 -64zM256 123v455q0 48 -45 48t-45 -48v-455q0 -47 45 -47t45 47z" />
    <glyph glyph-name="R" unicode="R" horiz-adv-x="456" 
d="M303 350l69 -339q2 -11 -11 -11h-66q-8 0 -12 11l-67 331q-2 7 -10 7h-19q-11 0 -11 -10v-328q0 -11 -10 -11h-65q-11 0 -11 11v679q0 11 11 11h153q40 0 69 -30t29 -71v-153q0 -51 -45 -81q-7 -5 -4 -16zM265 476v94q0 17 -12 30.5t-28 13.5h-38q-11 0 -11 -10v-159
q0 -9 11 -9h38q17 0 28.5 12t11.5 28z" />
    <glyph glyph-name="S" unicode="S" horiz-adv-x="415" 
d="M258 567q0 22 -14.5 38t-37.5 16t-38 -17.5t-15 -46.5q0 -35 21 -72t50.5 -70.5t59 -69t50.5 -81t21 -94.5q0 -62 -39 -119.5t-113 -57.5q-63 0 -102.5 41t-40.5 119v24q0 11 11 11h64q11 0 11 -11v-21q0 -36 17 -56.5t43 -20.5t43 24t17 71q0 38 -21 75.5t-51.5 70
t-61 66t-51.5 78t-21 93.5q0 64 41.5 107t100.5 43t100.5 -41t41.5 -99q0 -11 -10 -11h-65q-11 0 -11 11z" />
    <glyph glyph-name="T" unicode="T" horiz-adv-x="421" 
d="M350 701q11 0 11 -11v-65q0 -11 -11 -11h-86q-11 0 -11 -11v-592q0 -11 -10 -11h-65q-11 0 -11 11v592q0 11 -11 11h-85q-11 0 -11 11v65q0 11 11 11h279z" />
    <glyph glyph-name="U" unicode="U" 
d="M342 690v-570q0 -70 -37.5 -102t-93.5 -32t-93.5 32t-37.5 102v570q0 10 11 10h64q11 0 11 -10v-567q0 -48 45 -48t45 48v567q0 10 11 10h64q11 0 11 -10z" />
    <glyph glyph-name="V" unicode="V" horiz-adv-x="417" 
d="M347 700q13 0 10 -11l-88 -678q-4 -11 -11 -11h-98q-7 0 -11 11q-87 668 -89 678q-2 11 11 11h65q7 0 11 -11l62 -585l62 585q2 11 11 11h65z" />
    <glyph glyph-name="W" unicode="W" horiz-adv-x="639" 
d="M579 689q2 11 -11 11h-65q-8 0 -10 -11l-63 -550l-52 550q-2 11 -11 11h-54h-41q-9 0 -11 -11l-52 -550l-62 550q-4 11 -11 11h-65q-13 0 -11 -11l89 -678q4 -11 11 -11h98q7 0 11 11l51 554l50 -554q4 -11 11 -11h99q8 0 10 11q87 668 89 678z" />
    <glyph glyph-name="X" unicode="X" horiz-adv-x="425" 
d="M65 17l97 364l-101 302q-2 6 1 11.5t9 5.5h63q14 0 17 -10l62 -231l61 231q3 10 17 10h63q6 0 9 -5.5t1 -11.5l-101 -322l101 -344q2 -6 -1 -11.5t-9 -5.5h-62q-16 0 -17 10l-62 264l-63 -264q-2 -10 -17 -10h-58q-6 0 -9 5.5t-1 11.5z" />
    <glyph glyph-name="Y" unicode="Y" horiz-adv-x="414" 
d="M165 183l-105 506q-2 11 11 11h58q15 0 17 -16l62 -361l60 361q3 16 16 16h60q14 0 10 -16l-104 -501v-169q0 -14 -14 -14h-57q-14 0 -14 14v169z" />
    <glyph glyph-name="Z" unicode="Z" horiz-adv-x="421" 
d="M258 597q2 7 -2.5 12t-11.5 5h-140q-12 0 -12 14v57q0 15 14 15h207q9 0 18 -13l26 -43q7 -14 3 -27l-197 -514q-2 -7 2.5 -12t11.5 -5h152q12 0 12 -14v-57q0 -15 -14 -15h-213q-14 0 -26 18l-24 38q-7 13 -1 32z" />
    <glyph glyph-name="bracketleft" unicode="[" horiz-adv-x="327" 
d="M161 588q0 34 4.5 40.5t30.5 6.5h37q14 0 14 14v50q0 15 -14 15h-127q-19 0 -22.5 -6t-3.5 -38v-626q0 -32 3.5 -38t22.5 -6h127q14 0 14 15v50q0 14 -14 14h-37q-26 0 -30.5 6t-4.5 41v462z" />
    <glyph glyph-name="backslash" unicode="\" horiz-adv-x="427" 
d="M260 -5l-180 710q0 15 14 15h59q14 0 14 -15q0 -21 45 -198.5t90 -344.5l45 -167q0 -15 -14 -15h-59q-14 0 -14 15z" />
    <glyph glyph-name="bracketright" unicode="]" horiz-adv-x="327" 
d="M166 588v-462q0 -35 -4.5 -41t-30.5 -6h-37q-14 0 -14 -14v-50q0 -15 14 -15h127q19 0 22.5 6t3.5 38v626q0 32 -3.5 38t-22.5 6h-127q-14 0 -14 -15v-50q0 -14 14 -14h37q26 0 30.5 -6.5t4.5 -40.5z" />
    <glyph glyph-name="asciicircum" unicode="^" horiz-adv-x="505" 
d="M191 680q3 14 16 14h94q14 0 17 -14l106 -302q2 -6 -1 -11.5t-9 -5.5h-63q-14 0 -17 10l-81 221l-82 -221q-4 -10 -17 -10h-63q-6 0 -9 5.5t-1 11.5z" />
    <glyph glyph-name="underscore" unicode="_" horiz-adv-x="680" 
d="M555 -139h-439q-11 0 -11 11v65q0 11 11 11h439q11 0 11 -11v-65q0 -11 -11 -11z" />
    <glyph glyph-name="a" unicode="a" horiz-adv-x="418" 
d="M60 11l89 578q4 11 11 11h99q8 0 10 -11q1 -2 44 -284t45 -294q1 -11 -10 -11h-66q-8 0 -10 11q-4 24 -11 75q-2 7 -8 7h-88q-5 0 -7 -7l-11 -75q-2 -11 -11 -11h-65q-12 0 -11 11zM171 180q0 -8 8 -8h61q9 0 7 8l-38 322z" />
    <glyph glyph-name="b" unicode="b" horiz-adv-x="412" 
d="M90 14v572q0 14 14 14h131q38 0 66 -29.5t28 -72.5v-85q0 -59 -41 -80q44 -23 44 -81v-150q0 -38 -28.5 -70t-65.5 -32h-134q-14 0 -14 14zM173 376q0 -14 14 -14h26q15 0 25.5 13.5t10.5 30.5v74q0 18 -10.5 31t-25.5 13h-26q-14 0 -14 -14v-134zM173 91q0 -14 14 -14
h29q15 0 25.5 13.5t10.5 30.5v123q0 18 -10.5 31t-25.5 13h-29q-14 0 -14 -14v-183z" />
    <glyph glyph-name="c" unicode="c" horiz-adv-x="401" 
d="M265 442q-11 0 -11 11v27q0 46 -45 46q-44 0 -44 -46v-356q0 -47 44 -47q45 0 45 47v37q0 11 11 11h61q10 0 10 -11v-55q0 -56 -38.5 -83.5t-88.5 -27.5q-55 0 -92 31.5t-37 100.5v350q0 68 37 99.5t92 31.5q50 0 88.5 -24.5t38.5 -75.5v-56q0 -10 -10 -10h-61z" />
    <glyph glyph-name="d" unicode="d" horiz-adv-x="412" 
d="M90 13v572q0 14 14 14h130q40 0 69 -30t29 -70v-403q0 -39 -30.5 -67.5t-71.5 -28.5h-126q-14 0 -14 13zM173 94q0 -14 14 -14h25q17 0 29.5 12t12.5 28v357q0 17 -12.5 30t-29.5 13h-28q-11 0 -11 -10v-416z" />
    <glyph glyph-name="e" unicode="e" horiz-adv-x="368" 
d="M186 519q-14 0 -14 -14v-92q0 -14 14 -14h78q14 0 14 -14v-50q0 -14 -14 -14h-78q-14 0 -14 -14v-213q0 -14 15 -14h107q13 0 13 -13v-52q0 -15 -14 -15h-189q-14 0 -14 15v571q0 14 14 14h190q14 0 14 -14v-53q0 -14 -14 -14h-108z" />
    <glyph glyph-name="f" unicode="f" horiz-adv-x="374" 
d="M295 600q14 0 14 -14v-53q0 -14 -14 -14h-108q-14 0 -14 -14v-81v-2q0 -14 14 -14h78q14 0 14 -14v-49q0 -14 -14 -14h-78q-14 0 -14 -14l1 -302q0 -6 -4.5 -10.5t-10.5 -4.5h-55q-14 0 -14 15v571q0 14 14 14h191z" />
    <glyph glyph-name="g" unicode="g" horiz-adv-x="407" 
d="M318 362q9 0 9 -8v-252q0 -57 -38 -85t-84 -28q-51 0 -88 32.5t-37 100.5v352q0 69 37 101t88 32q46 0 84 -24.5t38 -74.5v-37q0 -10 -10 -10h-57q-12 0 -12 10v9q0 48 -43 48q-42 0 -42 -48v-363q0 -47 42 -47q43 0 43 48l-1 157q0 11 -10 11h-28q-10 0 -10 11v55
q0 10 10 10h109z" />
    <glyph glyph-name="h" unicode="h" horiz-adv-x="432" 
d="M90 15v571q0 14 14 14h54q14 0 14 -14v-184q0 -14 14 -14h60q14 0 14 14v184q0 14 14 14h54q14 0 14 -14v-571q0 -15 -14 -15h-54q-6 0 -10.5 4.5t-4.5 10.5l1 281q0 14 -14 14h-60q-14 0 -14 -14l1 -281q0 -6 -4.5 -10.5t-10.5 -4.5h-54q-14 0 -14 15z" />
    <glyph glyph-name="i" unicode="i" horiz-adv-x="263" 
d="M90 14v572q0 14 14 14h55q14 0 14 -14v-572q0 -14 -14 -14h-55q-14 0 -14 14z" />
    <glyph glyph-name="j" unicode="j" horiz-adv-x="398" 
d="M62 58q16 -31 49.5 -50t69.5 -19q51 0 89 33.5t38 99.5v465q0 14 -14 14h-55q-14 0 -14 -15v-466q0 -53 -44 -53q-11 0 -21 5t-15.5 10.5t-12.5 13.5l-7 8q-11 11 -25 0l-30 -18q-16 -12 -8 -28z" />
    <glyph glyph-name="k" unicode="k" 
d="M236 329l129 -313q7 -16 -10 -16h-56q-12 0 -17 14q-2 6 -47.5 108.5t-66.5 162.5v-272q0 -13 -14 -13h-49q-15 0 -15 13v572q0 6 4.5 10.5t10.5 4.5h49q14 0 14 -15v-230q16 42 38.5 93t41.5 90t22 47q6 15 14 15h62q1 0 3 -0.5t4.5 -4t-0.5 -10.5z" />
    <glyph glyph-name="l" unicode="l" horiz-adv-x="363" 
d="M187 79h107q14 0 14 -14v-50q0 -15 -14 -15h-189q-5 0 -10 4.5t-5 10.5v578v2t2.5 3t6.5 2h66q4 0 6 -2t2 -4v-1v-500q0 -14 14 -14z" />
    <glyph glyph-name="m" unicode="m" horiz-adv-x="551" 
d="M451 601q10 0 10 -10v-580q0 -11 -10 -11h-61q-11 0 -11 11v355l-73 -304q-2 -11 -10 -11h-40q-9 0 -11 11l-73 304v-355q0 -11 -10 -11h-61q-11 0 -11 11v580q0 10 11 10h73q9 0 10 -5l92 -426q88 412 92 426q1 5 9 5h74z" />
    <glyph glyph-name="n" unicode="n" horiz-adv-x="467" 
d="M296 172v417q0 11 10 11h60q11 0 11 -11v-578q0 -10 -11 -10h-57q-9 0 -13 10q-3 13 -52 159t-72 231v-390q0 -11 -10 -11h-61q-11 0 -11 11v579q0 10 11 10h63q9 0 10 -5q1 -3 19.5 -65.5t48.5 -166t54 -191.5z" />
    <glyph glyph-name="o" unicode="o" 
d="M211 609q56 0 93.5 -32t37.5 -102v-356q0 -70 -37.5 -102t-93.5 -32t-93.5 32t-37.5 102v356q0 70 37.5 102t93.5 32zM261 122v351q0 56 -50 56t-50 -56v-351q0 -58 50 -58t50 58z" />
    <glyph glyph-name="p" unicode="p" horiz-adv-x="407" 
d="M244 600q40 0 69 -30.5t29 -73.5v-101q0 -40 -29.5 -70.5t-68.5 -30.5h-62q-11 0 -11 -10v-273q0 -11 -10 -11h-60q-11 0 -11 11v578q0 11 11 11h143zM259 415v60q0 17 -12 30.5t-28 13.5h-37q-11 0 -11 -10v-125q0 -9 11 -9h37q17 0 28.5 11.5t11.5 28.5z" />
    <glyph glyph-name="q" unicode="q" horiz-adv-x="427" 
d="M364 23q8 -7 0 -15l-46 -46q-7 -7 -16 0l-34 34q-26 -10 -57 -10q-55 0 -93 32.5t-38 101.5v354q0 70 37.5 102t93.5 32t93.5 -32t37.5 -102v-354q0 -36 -11 -64zM260 123v348q0 54 -49 54q-50 0 -50 -54v-348q0 -53 50 -53q49 0 49 53z" />
    <glyph glyph-name="r" unicode="r" horiz-adv-x="456" 
d="M376 11q2 -11 -11 -11h-66q-8 0 -12 11q-9 36 -12 46t-12.5 46.5t-21.5 80.5t-25 93q-2 7 -10 7h-23q-11 0 -11 -10v-263q0 -11 -10 -11h-61q-11 0 -11 11v578q0 11 11 11h153q40 0 69 -30t29 -71v-117q0 -51 -45 -81q-7 -6 -4 -16q38 -148 73 -274zM269 411v58
q0 17 -12 30.5t-28 13.5h-46q-11 0 -11 -10v-123q0 -9 11 -9h46q17 0 28.5 11.5t11.5 28.5z" />
    <glyph glyph-name="s" unicode="s" horiz-adv-x="373" 
d="M225 485q0 18 -11.5 29t-28.5 11q-18 0 -30 -12.5t-12 -36.5q0 -30 17.5 -61.5t42.5 -60t50 -59t42.5 -70t17.5 -80.5q0 -54 -33.5 -103t-96.5 -49q-55 0 -88.5 35t-34.5 102v21q0 9 9 9h61q10 0 10 -9v-18q0 -29 13.5 -44.5t31.5 -15.5q46 0 46 75q0 33 -17.5 65
t-42.5 59.5t-50.5 56.5t-43 67t-17.5 80q0 56 35.5 92.5t86.5 36.5q50 0 85.5 -35t35.5 -85q0 -10 -8 -10h-61q-9 0 -9 10z" />
    <glyph glyph-name="t" unicode="t" horiz-adv-x="381" 
d="M310 600q11 0 11 -11v-59q0 -11 -11 -11h-68q-11 0 -11 -11v-497q0 -11 -10 -11h-61q-11 0 -11 11v497q0 11 -11 11h-67q-11 0 -11 11v59q0 11 11 11h239z" />
    <glyph glyph-name="u" unicode="u" horiz-adv-x="410" 
d="M330 590v-470q0 -70 -36.5 -102t-88.5 -32q-51 0 -88 32t-37 102v470q0 10 11 10h60q11 0 11 -10v-467q0 -58 43 -58t43 58v467q0 10 11 10h60q11 0 11 -10z" />
    <glyph glyph-name="v" unicode="v" horiz-adv-x="369" 
d="M299 600q13 0 10 -11l-64 -578q-4 -11 -11 -11h-98q-7 0 -11 11q-63 568 -65 578q-2 11 11 11h61q7 0 11 -11l42 -485l42 485q2 11 11 11h61z" />
    <glyph glyph-name="w" unicode="w" horiz-adv-x="599" 
d="M539 589q2 11 -11 11h-65q-8 0 -10 -11l-43 -480l-62 480q-2 11 -11 11h-75q-9 0 -11 -11l-62 -480l-42 480q-4 11 -11 11h-65q-13 0 -11 -11l69 -578q4 -11 11 -11h94q7 0 11 11l55 454l54 -454q4 -11 11 -11h95q8 0 10 11q67 568 69 578z" />
    <glyph glyph-name="x" unicode="x" horiz-adv-x="392" 
d="M61 18l79 318l-73 248q-2 6 1 11.5t9 5.5h49q14 0 17 -10l52 -191l51 191q3 10 17 10h55q6 0 9 -5.5t1 -11.5l-75 -255l78 -311q2 -6 -1 -11.5t-9 -5.5h-57q-14 0 -17 10l-52 261l-53 -261q-2 -10 -17 -10h-54q-6 0 -9 5.5t-1 11.5z" />
    <glyph glyph-name="y" unicode="y" horiz-adv-x="367" 
d="M143 227l-83 366q-2 11 11 11h54q15 0 17 -16l42 -271l40 271q3 16 16 16h56q13 0 10 -16l-82 -361v-209q0 -14 -14 -14h-53q-14 0 -14 14v209z" />
    <glyph glyph-name="z" unicode="z" horiz-adv-x="394" 
d="M238 503q2 7 -2.5 12t-11.5 5h-114q-12 0 -12 14v51q0 15 14 15h177q11 0 18 -13l22 -43q7 -14 3 -27l-178 -420q-2 -7 2.5 -12t11.5 -5h137q12 0 12 -14v-51q0 -15 -14 -15h-193q-16 0 -26 18l-20 38q-7 13 -1 32z" />
    <glyph glyph-name="braceleft" unicode="{" horiz-adv-x="373" 
d="M252 623q-14 0 -23 -3.5t-13.5 -6t-6.5 -11.5t-2 -11.5v-14.5v-187q0 -61 -48 -88q48 -27 48 -88v-187q0 -31 10 -39q11 -8 35 -8h27q14 0 14 -14v-60q0 -15 -14 -15h-27q-55 0 -90.5 32t-35.5 102v186v8v8t-0.5 7t-1 7t-1.5 5.5t-3 5.5t-4.5 4t-6 2.5t-8.5 0.5h-7
q-14 0 -14 15v30v26q0 15 14 15h7q5 0 8.5 0.5t6 2.5t4.5 4t3 5.5t1.5 5.5t1 7t0.5 7v8v8v186q0 70 35.5 102t90.5 32h27q14 0 14 -15v-60q0 -14 -14 -14h-27z" />
    <glyph glyph-name="braceright" unicode="}" horiz-adv-x="373" 
d="M279 344q14 0 14 -15v-30v-26q0 -15 -14 -15h-7q-5 0 -8.5 -0.5t-6 -2.5t-4.5 -4t-3 -5.5t-1.5 -5.5t-1 -7t-0.5 -7v-8v-8v-186q0 -70 -35.5 -102t-90.5 -32h-27q-14 0 -14 15v60q0 14 14 14h27q14 0 23 3.5t13.5 6t6.5 11.5t2 11.5v14.5v187q0 61 48 88q-48 27 -48 88
v187q0 31 -10 39q-11 8 -35 8h-27q-14 0 -14 14v60q0 15 14 15h27q55 0 90.5 -32t35.5 -102v-186v-8v-8t0.5 -7t1 -7t1.5 -5.5t3 -5.5t4.5 -4t6 -2.5t8.5 -0.5h7z" />
    <glyph glyph-name="exclamdown" unicode="&#xa1;" horiz-adv-x="247" 
d="M80 669q0 12 9.5 21.5t21.5 9.5h25q12 0 21.5 -9.5t9.5 -21.5v-25q0 -12 -9.5 -21.5t-21.5 -9.5h-25q-12 0 -21.5 9.5t-9.5 21.5v25zM87 529q0 8 11 8h51q11 0 11 -8q7 -488 7 -521q0 -8 -11 -8h-65q-11 0 -11 8z" />
    <glyph glyph-name="cent" unicode="&#xa2;" horiz-adv-x="416" 
d="M265 468q-5 -1 -8 2.5t-3 8.5v29q0 46 -45 46q-44 0 -44 -46v-319q0 -47 44 -47q45 0 45 47v29q0 11 11 11l61 -4q10 -2 10 -11v-49q0 -83 -85 -106l7 -52q0 -8 -11 -8h-65q-11 0 -11 8q4 26 7 50q-98 17 -98 129v325q0 110 99 129l-7 51q0 8 11 8h65q11 0 11 -8l-8 -54
q37 -8 61 -32t24 -63v-56q0 -9 -10 -10z" />
    <glyph glyph-name="sterling" unicode="&#xa3;" horiz-adv-x="466" 
d="M375 77q11 0 11 -11v-55q0 -11 -11 -11h-279q-11 0 -11 11v8v58q0 27 18 27t40 31.5t31 77.5h-81q-11 0 -11 11v55q0 11 11 11h85q-5 55 -51.5 140t-46.5 149q0 68 37 99.5t92 31.5q50 0 88.5 -24.5t38.5 -75.5v-56q0 -9 -10 -10l-61 -8q-5 -1 -8 2.5t-3 8.5v39
q0 46 -45 46q-44 0 -44 -46q0 -32 20.5 -76t43.5 -101.5t27 -118.5h69q11 0 11 -11v-55q0 -11 -11 -11h-72q-14 -77 -66 -136h188z" />
    <glyph glyph-name="currency" unicode="&#xa4;" horiz-adv-x="680" 
d="M467 346q0 -51 -21 -83l38 -38l-26 -27l-38 38q-32 -24 -84 -24q-48 0 -80 22l-38 -37l-26 26l37 37q-24 32 -24 86v11q0 46 17 75l-41 42l26 26l39 -39q33 30 90 30q55 0 90 -28l37 37l27 -26l-41 -40q18 -33 18 -77v-11zM253 347q0 -89 84 -89q83 0 83 89v11
q0 87 -83 87q-84 0 -84 -87v-11z" />
    <glyph glyph-name="yen" unicode="&#xa5;" horiz-adv-x="455" 
d="M364 700q14 0 10 -16l-98 -395h63q9 0 9 -13v-26q0 -13 -9 -13h-69v-25h69q9 0 9 -13v-26q0 -13 -9 -13h-69v-146q0 -14 -14 -14h-57q-14 0 -14 14v146h-68q-10 0 -10 13v26q0 13 10 13h68v25h-68q-10 0 -10 13v26q0 13 10 13h62l-99 400q-2 11 11 11h58q15 0 17 -16
l62 -311l60 311q3 16 16 16h60z" />
    <glyph glyph-name="guillemotleft" unicode="&#xab;" horiz-adv-x="476" 
d="M237 470l-69 -217v-1l-1 -2q0 -1 1 -2v-2l69 -217q1 -6 -3.5 -10.5t-10.5 -4.5h-57q-13 0 -16 15l-69 217l-1 2v2v1q1 1 1 2l69 217q3 15 16 15h57q6 0 10.5 -4.5t3.5 -10.5zM326 246l69 -217q1 -6 -3.5 -10.5t-10.5 -4.5h-57q-13 0 -16 15l-69 217l-1 2v2v1q1 1 1 2
l69 217q3 15 16 15h57q6 0 10.5 -4.5t3.5 -10.5l-69 -217v-1l-1 -2q0 -1 1 -2v-2z" />
    <glyph glyph-name="periodcentered" unicode="&#xb7;" horiz-adv-x="247" 
d="M80 261v25q0 12 9.5 21.5t21.5 9.5h25q12 0 21.5 -9.5t9.5 -21.5v-25q0 -12 -9.5 -21.5t-21.5 -9.5h-25q-12 0 -21.5 9.5t-9.5 21.5z" />
    <glyph glyph-name="guillemotright" unicode="&#xbb;" horiz-adv-x="476" 
d="M237 253q0 -1 1 -3v-2l-1 -2l-69 -217q-3 -15 -16 -15h-57q-6 0 -10.5 4.5t-3.5 10.5l69 217v2q1 1 1 2l-1 1v2l-69 217q-1 6 3.5 10.5t10.5 4.5h57q13 0 16 -15zM395 253q0 -1 1 -3v-2l-1 -2l-69 -217q-3 -15 -16 -15h-57q-6 0 -10.5 4.5t-3.5 10.5l69 217v2q1 1 1 2
l-1 1v2l-69 217q-1 6 3.5 10.5t10.5 4.5h57q13 0 16 -15z" />
    <glyph glyph-name="questiondown" unicode="&#xbf;" horiz-adv-x="444" 
d="M277 676v-25q0 -12 -9.5 -21.5t-21.5 -9.5h-25q-12 0 -21.5 9.5t-9.5 21.5v25q0 12 9.5 21.5t21.5 9.5h25q12 0 21.5 -9.5t9.5 -21.5zM278 140q0 11 11 11h65q10 0 10 -11q0 -58 -41.5 -99t-100.5 -41t-100.5 41t-41.5 99q0 54 17 105t38 85t38 85t17 105q0 14 14 14h60
q13 0 13 -14q0 -63 -17 -119.5t-37.5 -90.5t-37.5 -79.5t-17 -90.5q0 -22 16 -38t38 -16q23 0 39.5 16t16.5 38z" />
    <glyph glyph-name="endash" unicode="&#x2013;" horiz-adv-x="490" 
d="M421 214h-351q-15 0 -15 14v59q0 14 15 14h351q14 0 14 -14v-59q0 -14 -14 -14z" />
    <glyph glyph-name="emdash" unicode="&#x2014;" horiz-adv-x="583" 
d="M512 214h-442q-15 0 -15 11v32q0 11 15 11h442q16 0 16 -11v-32q0 -11 -16 -11z" />
    <glyph glyph-name="quoteleft" unicode="&#x2018;" horiz-adv-x="197" 
d="M111 644q12 0 21.5 -9.5t9.5 -21.5v-25q0 -12 -9.5 -21.5t-21.5 -9.5h-25q-12 0 -21.5 9.5t-9.5 21.5v45q0 3 2 7l32 69h17v-65h5z" />
    <glyph glyph-name="quoteright" unicode="&#x2019;" horiz-adv-x="197" 
d="M142 678v-45q0 -3 -2 -7l-32 -69h-17v65h-5q-12 0 -21.5 9.5t-9.5 21.5v25q0 12 9.5 21.5t21.5 9.5h25q12 0 21.5 -9.5t9.5 -21.5z" />
    <glyph glyph-name="quotesinglbase" unicode="&#x201a;" horiz-adv-x="267" 
d="M177 56v-45q0 -4 -3 -7l-31 -51h-17v47h-5q-12 0 -21.5 9.5t-9.5 21.5v25q0 12 9.5 21.5t21.5 9.5h25q12 0 21.5 -9.5t9.5 -21.5z" />
    <glyph glyph-name="quotedblleft" unicode="&#x201c;" horiz-adv-x="319" 
d="M111 644q12 0 21.5 -9.5t9.5 -21.5v-25q0 -12 -9.5 -21.5t-21.5 -9.5h-25q-12 0 -21.5 9.5t-9.5 21.5v45q0 3 2 7l32 69h17v-65h5zM233 644q12 0 21.5 -9.5t9.5 -21.5v-25q0 -12 -9.5 -21.5t-21.5 -9.5h-25q-12 0 -21.5 9.5t-9.5 21.5v45q0 3 2 7l32 69h17v-65h5z" />
    <glyph glyph-name="quotedblright" unicode="&#x201d;" horiz-adv-x="319" 
d="M111 709q12 0 21.5 -9.5t9.5 -21.5v-45q0 -3 -2 -7l-32 -69h-17v65h-5q-12 0 -21.5 9.5t-9.5 21.5v25q0 12 9.5 21.5t21.5 9.5h25zM264 678v-45q0 -3 -2 -7l-32 -69h-17v65h-5q-12 0 -21.5 9.5t-9.5 21.5v25q0 12 9.5 21.5t21.5 9.5h25q12 0 21.5 -9.5t9.5 -21.5z" />
    <glyph glyph-name="quotedblbase" unicode="&#x201e;" horiz-adv-x="267" 
d="M177 56v-45q0 -4 -3 -7l-31 -51h-17v47h-5q-12 0 -21.5 9.5t-9.5 21.5v25q0 12 9.5 21.5t21.5 9.5h25q12 0 21.5 -9.5t9.5 -21.5z" />
    <glyph glyph-name="bullet" unicode="&#x2022;" horiz-adv-x="340" 
d="M80 258v51q0 25 20 44.5t45 19.5h51q25 0 44.5 -19.5t19.5 -44.5v-51q0 -25 -19.5 -45t-44.5 -20h-51q-25 0 -45 19.5t-20 45.5z" />
    <glyph glyph-name="ellipsis" unicode="&#x2026;" horiz-adv-x="584" 
d="M55 31v25q0 12 9.5 21.5t21.5 9.5h25q12 0 21.5 -9.5t9.5 -21.5v-25q0 -12 -9.5 -21.5t-21.5 -9.5h-25q-12 0 -21.5 9.5t-9.5 21.5zM246 31v25q0 12 9.5 21.5t21.5 9.5h25q12 0 21.5 -9.5t9.5 -21.5v-25q0 -12 -9.5 -21.5t-21.5 -9.5h-25q-12 0 -21.5 9.5t-9.5 21.5z
M442 31v25q0 12 9.5 21.5t21.5 9.5h25q12 0 21.5 -9.5t9.5 -21.5v-25q0 -12 -9.5 -21.5t-21.5 -9.5h-25q-12 0 -21.5 9.5t-9.5 21.5z" />
    <glyph glyph-name="guilsinglleft" unicode="&#x2039;" horiz-adv-x="317" 
d="M168 246l69 -217q1 -6 -3.5 -10.5t-10.5 -4.5h-57q-13 0 -16 15l-69 217l-1 2v2v1q1 1 1 2l69 217q3 15 16 15h57q6 0 10.5 -4.5t3.5 -10.5l-69 -217v-1l-1 -2q0 -1 1 -2v-2z" />
    <glyph glyph-name="guilsinglright" unicode="&#x203a;" horiz-adv-x="317" 
d="M236 253v-1l1 -2q0 -1 -1 -2v-2l-69 -217q-3 -15 -16 -15h-57q-6 0 -10.5 4.5t-3.5 10.5l69 217l1 2v2v1q-1 1 -1 2l-69 217q-1 6 3.5 10.5t10.5 4.5h57q13 0 16 -15z" />
    <glyph glyph-name="Euro" unicode="&#x20ac;" horiz-adv-x="416" 
d="M265 486q-5 -1 -8 2.5t-3 8.5v79q0 46 -45 46q-44 0 -44 -46v-122h89q11 0 11 -11v-55q0 -11 -11 -11h-89v-51h92q11 0 11 -11v-55q0 -11 -11 -11h-92v-124q0 -47 44 -47q45 0 45 47v79q0 11 11 11l61 -4q10 -2 10 -11v-99q0 -56 -38.5 -83.5t-88.5 -27.5q-55 0 -92 31.5
t-37 100.5v127h-25q-11 0 -11 11v55q0 11 11 11h25v51h-28q-11 0 -11 11v55q0 11 11 11h28v125q0 68 37 99.5t92 31.5q50 0 88.5 -24.5t38.5 -75.5v-106q0 -9 -10 -10z" />
    <glyph glyph-name="underscore.001" horiz-adv-x="680" 
d="M555 -139h-439q-11 0 -11 11v65q0 11 11 11h439q11 0 11 -11v-65q0 -11 -11 -11z" />
    <glyph glyph-name="space.001" horiz-adv-x="260" 
 />
  </font>
</defs>
</svg>
